<?xml version="1.0" encoding="UTF-8" standalone="no"?><!DOCTYPE svg PUBLIC "-//W3C//DTD SVG 1.1//EN" "http://www.w3.org/Graphics/SVG/1.1/DTD/svg11.dtd"><svg width="100%" height="100%" viewBox="0 0 165 47" version="1.1" xmlns="http://www.w3.org/2000/svg" xmlns:xlink="http://www.w3.org/1999/xlink" xml:space="preserve" xmlns:serif="http://www.serif.com/" style="fill-rule:evenodd;clip-rule:evenodd;stroke-linejoin:round;stroke-miterlimit:1.41421;"><path d="M28.756,23.166c-0.955,-1.653 -2.368,-2.993 -4.068,-3.86c-2.025,-1.039 -4.181,-1.799 -6.409,-2.26c-2.002,-0.498 -4.014,-0.972 -5.953,-1.673c-1.076,-0.411 -2.192,-0.867 -2.974,-1.749c-0.476,-0.545 -0.727,-1.251 -0.701,-1.975c0.049,-1.363 0.645,-2.649 1.655,-3.566c1.221,-1.097 2.836,-1.654 4.475,-1.542c3.059,0.167 5.984,1.329 8.587,2.925c0.452,0.266 0.904,0.718 1.474,0.542c0.415,-0.099 0.767,-0.373 0.967,-0.75c0.773,-1.049 1.573,-2.084 2.36,-3.124c0.246,-0.304 0.319,-0.713 0.194,-1.084c-0.059,-0.407 -0.452,-0.633 -0.741,-0.846c-2.757,-1.91 -5.884,-3.218 -9.18,-3.837c-1.133,-0.228 -2.285,-0.348 -3.44,-0.357c-0.827,-0.027 -1.654,0.001 -2.477,0.086c-3.616,0.425 -7.155,2.169 -9.298,5.157c-1.502,2.096 -2.185,4.668 -1.921,7.232c0.064,1.376 0.393,2.726 0.968,3.978c0.891,1.774 2.3,3.237 4.04,4.194c2.153,1.164 4.46,2.018 6.853,2.536c1.921,0.37 3.8,0.931 5.609,1.677c1.211,0.547 2.423,1.265 3.164,2.405c0.509,0.816 0.672,1.802 0.452,2.739c-0.357,1.256 -1.419,2.174 -2.549,2.752c-1.735,0.816 -3.671,1.105 -5.569,0.832c-1.465,-0.114 -2.902,-0.462 -4.257,-1.031c-1.709,-0.727 -3.228,-1.808 -4.778,-2.806c-0.364,-0.262 -0.776,-0.449 -1.212,-0.552c-0.271,0.015 -0.526,0.131 -0.714,0.326c-0.935,0.904 -1.785,1.88 -2.676,2.82c-0.4,0.381 -0.63,0.908 -0.637,1.46c-0.001,0.542 0.279,1.045 0.741,1.329c2.024,1.382 4.186,2.551 6.45,3.489c2.499,1.071 5.179,1.655 7.897,1.722c2.424,0.004 4.83,-0.411 7.114,-1.225c2.635,-0.98 5.072,-2.739 6.459,-5.229c1.141,-2.14 1.566,-4.589 1.212,-6.988c-0.126,-1.31 -0.505,-2.583 -1.117,-3.747Z" style="fill:#592c85;"/><path d="M46.493,10.993c-7.718,-0.002 -13.978,6.25 -13.985,13.968c-0.008,7.717 6.24,13.981 13.958,13.993c7.717,0.013 13.985,-6.231 14.003,-13.949c0.008,-3.712 -1.461,-7.275 -4.082,-9.904c-2.622,-2.628 -6.182,-4.106 -9.894,-4.108Zm0,21.389c-3.004,0.008 -5.715,-1.798 -6.865,-4.572c-1.151,-2.773 -0.514,-5.968 1.611,-8.088c2.127,-2.122 5.322,-2.75 8.093,-1.592c2.771,1.157 4.57,3.872 4.555,6.875c-0.009,4.081 -3.314,7.386 -7.394,7.395l0,-0.018Z" style="fill:#592c85;"/><path d="M69.106,0.24c-1.234,0.027 -2.467,-0.045 -3.697,0.036c-0.618,0.096 -1.153,0.483 -1.437,1.04c-0.178,0.55 -0.238,1.13 -0.176,1.704c0,11.032 0,22.064 0,33.096c-0.061,0.58 -0.002,1.165 0.171,1.722c0.188,0.479 0.595,0.839 1.094,0.967c0.535,0.043 1.072,0.057 1.609,0.041c1.013,0 2.034,0.14 3.038,-0.032c0.763,-0.144 1.325,-0.797 1.356,-1.573c0,-11.779 0,-23.559 0,-35.342c0.049,-1.035 -1.017,-1.699 -1.958,-1.659Z" style="fill:#592c85;"/><path d="M101.8,11.111c-1.492,0 -2.979,0 -4.47,0c-0.513,-0.034 -1.018,0.127 -1.415,0.452c-0.263,0.284 -0.454,0.626 -0.556,0.999c-1.745,4.443 -3.399,8.927 -5.072,13.402c-0.15,0.466 -0.337,0.92 -0.56,1.356c-0.374,0.496 -1.06,0.634 -1.596,0.321c-0.587,-0.294 -0.7,-0.999 -0.904,-1.555c-1.645,-4.52 -3.412,-9.013 -5.175,-13.493c-0.402,-0.949 -1.343,-1.557 -2.373,-1.532c-1.121,0 -2.26,0 -3.359,0c-0.253,-0.011 -0.506,0.007 -0.754,0.055c-0.684,0.22 -1.21,0.768 -1.402,1.459c-0.122,0.529 0.181,1.017 0.371,1.487c3.164,7.409 6.391,14.795 9.492,22.221c0.272,0.729 0.588,1.442 0.945,2.133c0.325,0.543 1.003,0.687 1.591,0.701c1.08,0 2.16,0 3.241,0c0.538,0.041 1.08,-0.016 1.6,-0.167c0.558,-0.217 1.003,-0.656 1.229,-1.212c1.261,-3.087 2.586,-6.142 3.878,-9.216c2.089,-4.92 4.178,-9.841 6.269,-14.763c0.204,-0.474 0.498,-0.971 0.371,-1.509c-0.148,-0.637 -0.698,-1.102 -1.351,-1.139Z" style="fill:#592c85;"/><path d="M132.432,11.111c-1.388,0 -2.776,0 -4.163,0c-0.452,-0.045 -0.907,0.023 -1.324,0.199c-0.379,0.193 -0.667,0.528 -0.8,0.931c-1.921,4.886 -3.739,9.813 -5.574,14.735c-0.101,0.328 -0.336,0.597 -0.646,0.741c-0.336,0.146 -0.718,0.143 -1.052,-0.008c-0.333,-0.15 -0.588,-0.434 -0.702,-0.783c-1.736,-4.809 -3.616,-9.573 -5.478,-14.328c-0.428,-0.974 -1.419,-1.579 -2.481,-1.514c-1.311,0.027 -2.622,-0.041 -3.929,0.032c-0.944,0.248 -1.808,1.356 -1.356,2.341c3.3,7.747 6.681,15.463 9.945,23.228c0.219,0.626 0.495,1.231 0.822,1.808c0.378,0.445 0.945,0.684 1.528,0.642c1.112,0 2.224,0 3.34,0c0.696,0 1.469,0 2.043,-0.452c0.656,-0.502 0.846,-1.356 1.167,-2.066c3.164,-7.533 6.35,-15.049 9.559,-22.55c0.222,-0.574 0.629,-1.143 0.452,-1.808c-0.144,-0.641 -0.695,-1.109 -1.351,-1.148Z" style="fill:#592c85;"/><path d="M164.375,11.78c-0.257,-0.48 -0.749,-0.788 -1.293,-0.809l-4.683,0c-0.685,0.001 -1.292,0.442 -1.505,1.094c-1.808,4.655 -3.566,9.347 -5.311,14.012c-0.199,0.488 -0.307,1.107 -0.813,1.356c-0.557,0.306 -1.254,0.158 -1.637,-0.348c-0.228,-0.417 -0.411,-0.858 -0.542,-1.316c-1.659,-4.52 -3.408,-9.012 -5.18,-13.487c-0.402,-0.99 -1.537,-1.483 -2.558,-1.447c-1.271,0.032 -2.55,-0.049 -3.815,0.041c-0.698,0.207 -1.245,0.751 -1.456,1.446c-0.162,0.497 0.131,0.972 0.312,1.42c3.304,7.729 6.667,15.435 9.917,23.187c0.377,0.71 0.464,1.537 0.244,2.31c-0.325,0.681 -1,1.127 -1.754,1.157c-1.018,0.052 -2.039,-0.003 -3.046,-0.163c-0.597,-0.063 -1.125,-0.452 -1.727,-0.452c-0.696,0.13 -1.246,0.665 -1.396,1.356c-0.29,1.017 -0.615,2.025 -0.904,3.033c-0.14,0.543 -0.172,1.311 0.42,1.596c1.994,0.91 4.18,1.322 6.369,1.202c1.586,-0.008 3.151,-0.368 4.583,-1.053c1.404,-0.791 2.547,-1.976 3.286,-3.408c1.053,-1.844 1.695,-3.878 2.531,-5.822c3.377,-7.932 6.735,-15.874 10.148,-23.793c0.114,-0.38 0.044,-0.792 -0.19,-1.112Z" style="fill:#592c85;"/></svg>